# xmcd
#
# Track frame offsets:
# 150
# 20415
# 38400
# 56127
# 76252
# 97922
# 114362
# 136202
# 151842
# 169082
# 188190
#
# Disc length: 2877 seconds
#
#
# Revision: 1
# Processed by: cddbd v1.4PL0 Copyright (c) Steve Scherf et al.
# Submitted via: FreeRIP 2.35 
#
DISCID=7a0b3b0b
DTITLE=Los Toros Band - ...Y No Hay Problemas
DYEAR=1999
DGENRE=Latin
TTITLE0=Enamorado
TTITLE1=Menos Que Nada
TTITLE2=La Buena Y La Mala
TTITLE3=La Quiero Ver
TTITLE4=Quizas Si, Quizas No (salsa)
TTITLE5=La Rubia Y La Morena
TTITLE6=Como Te Olvido
TTITLE7=Dos Rosas
TTITLE8=Guayacanal
TTITLE9=La Mecedora
TTITLE10=Popurri Joseito Mateo
EXTD=
EXTT0=
EXTT1=
EXTT2=
EXTT3=
EXTT4=
EXTT5=
EXTT6=
EXTT7=
EXTT8=
EXTT9=
EXTT10=
PLAYORDER=
